ModelForces
version=1
nRows=5
nColumns=103
inDegrees=no

This file contains the forces exerted on a model during a simulation.

A force is a generalized force, meaning that it can be either a force (N) or a torque (Nm).

Units are S.I. units (second, meters, Newtons, ...)
Angles are in degrees.

endheader
time	glut_med1_r	glut_med2_r	glut_med3_r	glut_min1_r	glut_min2_r	glut_min3_r	semimem_r	semiten_r	bifemlh_r	bifemsh_r	sar_r	add_long_r	add_brev_r	add_mag1_r	add_mag2_r	add_mag3_r	tfl_r	pect_r	grac_r	glut_max1_r	glut_max2_r	glut_max3_r	iliacus_r	psoas_r	quad_fem_r	gem_r	peri_r	rect_fem_r	vas_med_r	vas_int_r	vas_lat_r	med_gas_r	lat_gas_r	soleus_r	tib_post_r	flex_dig_r	flex_hal_r	tib_ant_r	per_brev_r	per_long_r	per_tert_r	ext_dig_r	ext_hal_r	glut_med1_l	glut_med2_l	glut_med3_l	glut_min1_l	glut_min2_l	glut_min3_l	semimem_l	semiten_l	bifemlh_l	bifemsh_l	sar_l	add_long_l	add_brev_l	add_mag1_l	add_mag2_l	add_mag3_l	tfl_l	pect_l	grac_l	glut_max1_l	glut_max2_l	glut_max3_l	iliacus_l	psoas_l	quad_fem_l	gem_l	peri_l	rect_fem_l	vas_med_l	vas_int_l	vas_lat_l	med_gas_l	lat_gas_l	soleus_l	tib_post_l	flex_dig_l	flex_hal_l	tib_ant_l	per_brev_l	per_long_l	per_tert_l	ext_dig_l	ext_hal_l	ercspn_r	ercspn_l	intobl_r	intobl_l	extobl_r	extobl_l	aACL_R	pACL_R	aPCL_R	pPCL_R	aMCL_R	aLCL_R	aPCL_L	pPCL_L	aMCL_L	aLCL_L
      0.00000000	     37.48087652	     28.28714471	     30.25598133	     13.28977762	     14.47626353	     15.91713841	     51.96059702	     22.17920658	     43.64551060	     37.95854625	      7.65201981	     27.93927808	     20.68957741	     14.51222487	     12.16230296	     19.66717628	     21.26060413	     11.16605282	      7.90167501	     18.12681708	     27.55933735	     20.56469162	     63.94906620	     55.74758807	     18.09791099	      9.16719286	     20.03897647	     57.26360909	     44.27891188	     48.41347402	     66.49818625	     77.78410336	     41.63036397	    152.72720615	     92.44658902	     14.93332009	     15.26895791	     41.82851940	     21.62523106	     46.40594865	      8.86060096	     25.04818486	      7.96045570	     37.48087652	     28.28714471	     30.25598133	     13.28977762	     14.47626353	     15.91713841	     53.92484286	     23.19858705	     42.85247552	     36.91660963	      7.68386166	     27.93927808	     20.68957741	     14.51222487	     12.16230296	     19.66717628	     17.44670744	     11.16605282	      7.95165123	     18.12681708	     27.55933735	     20.56469162	     63.94906620	     55.74758807	     18.09791099	      9.16719286	     20.03897647	     57.23135634	     46.24303337	     52.92139557	     63.61229028	     90.65932434	     35.58489567	    152.72720615	     92.44658902	     14.93332009	     15.26895791	     41.82851940	     21.62523106	     46.40594865	      8.86060096	     25.04818486	      7.96045570	    124.99446086	    124.99446086	     44.97041513	     44.97041513	     60.98287244	     60.98287244	    275.29385960	    388.39173622	      0.00000000	    347.95306591	      1.35652550	   1303.25827576	      0.32189536	   2648.00691844	    129.61505198	    527.44014571
      0.00053499	     38.31344175	     29.34578655	     31.36152442	     14.19075677	     15.19565530	     16.36506865	     50.38835827	     21.83179982	     42.19883483	     35.95841787	      8.42965536	     27.14200550	     18.84740444	     14.01066568	     12.02036330	     19.72195122	     20.48825792	     10.60820556	      8.04450441	     18.52717629	     28.12276755	     20.76670770	     63.05451628	     55.24845342	     17.30348242	      9.11721755	     20.21321400	     53.81372121	     37.27184178	     41.35614961	     57.15090756	     74.04653432	     39.50715806	    147.96797363	     91.55932985	     14.87422867	     15.17415826	     42.96985736	     21.76776322	     46.44924059	      9.36409664	     25.46716584	      8.08560925	     36.01852227	     27.18471106	     29.58502919	     11.17919372	     13.09926067	     15.28301131	     51.57148977	     21.93639761	     39.84429014	     29.48252290	      6.23448848	     28.78299041	     24.58284727	     15.82745598	     12.71225427	     19.95698295	     16.67535139	     11.68112939	      7.04399259	     18.08064367	     27.82123317	     21.42067384	     63.40183891	     55.43770722	     20.63826197	      9.45118472	     19.93751844	     53.64135943	     41.69454066	     47.88866945	     58.40076592	     83.80095133	     33.08887169	    148.02068688	     90.65269208	     14.75543036	     15.07329517	     42.38709637	     22.45192314	     47.11258709	      9.63268228	     25.55749022	      8.04487606	    120.72536799	    123.72886756	     44.99092877	     45.72979753	     61.12230733	     61.67774640	    122.88969245	    236.32873957	      0.00000000	     88.77633489	   -217.48927878	    999.22739009	   -233.12673824	   1793.07479420	   -180.63366468	    106.58466442
      0.00067189	     38.74149621	     29.88480318	     31.92327055	     14.64766801	     15.56546042	     16.59537676	     49.58980339	     21.65731489	     41.46808296	     35.01064017	      8.78806669	     26.75281623	     18.06101422	     13.76386313	     11.94786261	     19.74764200	     20.09843053	     10.34936134	      8.11347678	     18.72762139	     28.40291682	     20.86265975	     62.62104014	     55.00295219	     16.91904814	      9.09096914	     20.30161787	     52.10088068	     33.99505090	     38.01906511	     52.71500591	     72.15918221	     38.43596600	    145.51883288	     91.08996709	     14.84336039	     15.12476330	     43.57178075	     21.84732367	     46.47643464	      9.63646935	     25.68771349	      8.15071786	     35.30509210	     26.66169456	     29.26815451	     10.29310639	     12.47067926	     14.97634537	     50.43717137	     21.34156264	     38.40218740	     26.37281488	      5.66022387	     29.20539930	     26.46077186	     16.50653816	     12.99273551	     20.10446810	     16.30600872	     11.93425416	      6.64712434	     18.06082024	     27.95766532	     21.86061742	     63.12455030	     55.27835529	     21.97433430	      9.59827159	     19.88874035	     51.91070011	     39.56439157	     45.51842443	     55.90300625	     80.50269427	     31.88411677	    145.62308420	     89.73794398	     14.66565745	     14.97429861	     42.68250472	     22.88455981	     47.47791092	     10.04747545	     25.82177033	      8.08823108	    118.82823069	    123.09981102	     45.00978345	     46.09866472	     61.19781778	     62.01530449	     94.03062258	    206.52825697	      0.00000000	     36.31736772	   -257.09740629	    937.83868857	      0.00000000	   1615.79842349	   -234.37518288	     30.47838867
      0.00080879	     39.24107706	     30.51010873	     32.57424679	     15.17781563	     15.99869063	     16.86490451	     48.68334134	     21.46429264	     40.64176440	     33.99808529	      9.19085744	     26.31403263	     17.23386726	     13.48190934	     11.86241335	     19.77449957	     19.65670493	     10.06636532	      8.19609766	     18.95646943	     28.72017727	     20.96548906	     62.13948478	     54.72797501	     16.48693303	      9.06038688	     20.40421548	     50.18013096	     30.47136026	     34.40411979	     47.89580858	     70.02369144	     37.22438613	    142.70621560	     90.54142842	     14.80747806	     15.06748706	     44.27641192	     21.94318016	     46.51103211	      9.96061697	     25.94546717	      8.22628821	     34.49091023	     26.06774499	     28.90230921	      9.37546205	     11.78402518	     14.62718723	     49.16586520	     20.68362284	     36.79447666	     23.17922602	      5.09087546	     29.70248356	     28.48030363	     17.30727898	     13.31977442	     20.27379481	     15.89563781	     12.23059163	      6.22808947	     18.03398007	     28.10812574	     22.36871160	     62.82025113	     55.10201282	     23.55680629	      9.77136600	     19.83189987	     49.98896847	     37.27188773	     42.95000755	     53.18585857	     76.83025310	     30.53998556	    142.88495020	     88.67917776	     14.56178796	     14.86001885	     43.02051908	     23.39912323	     47.90968593	     10.54389871	     26.12961821	      8.13765361	    116.79933278	    122.43322963	     45.02914296	     46.51507726	     61.27978716	     62.39631263	     68.70245931	    179.85415324	      0.00000000	    -10.45136190	   -290.77262280	    882.33673985	      0.00000000	   1437.98490903	   -282.08602986	    -41.18844588
      0.00149329	     42.55918342	     34.54487567	     36.77196307	     18.34678622	     18.84985097	     18.67446766	     43.29019179	     20.47586978	     35.80469956	     29.31340972	     11.76960396	     23.74242535	     13.40130409	     11.76174454	     11.28217653	     19.88371388	     17.03190388	      8.57606643	      8.88233620	     20.35809808	     30.60461344	     21.44567372	     59.46079251	     53.15281332	     13.99917302	      8.86100275	     21.07442510	     39.18553527	     13.27428922	     16.30072820	     23.48423934	     57.45439789	     30.11218988	    125.20448860	     86.90175948	     14.57219012	     14.69577987	     49.01445550	     22.64781442	     46.80413288	     12.25349172	     27.66939417	      8.71940284	     29.52760149	     22.49014394	     26.54022605	      5.41135487	      8.21580409	     12.50957993	     41.87215334	     17.08419362	     27.78165586	      9.78869745	      2.95153333	     33.11950639	     33.97307195	     22.41076105	     15.47115053	     21.32893010	     13.63076991	     14.18710494	      4.27965131	     17.75887230	     28.88019563	     25.57529329	     61.25414990	     54.16583785	     30.34116273	     10.95098080	     19.44924077	     39.38125636	     26.04828147	     30.02442432	     39.39058249	     56.39846005	     22.99677570	    126.23552451	     81.89590097	     13.89337136	     14.13173097	     45.07495131	     27.07958538	     50.92137529	     13.98597237	     28.15780366	      8.43588105	    106.97421382	    119.34718503	     45.11021942	     48.93013752	     61.67813660	     64.62522946	    -16.43522378	     84.10846299	      0.00000000	   -178.66586399	   -392.94805597	    674.06311330	      0.00000000	    733.71200501	   -410.35907103	   -262.50293077
